<svg width="837" height="883" viewBox="0 0 837 883" fill="none" xmlns="http://www.w3.org/2000/svg">

<path d="M1.37461 127.159C53.1514 128.994 93.9314 129.912 123.715 129.912C167.015 129.912 205.733 128.994 239.869 127.159C240.785 130.829 241.243 133.352 241.243 134.728C241.243 137.251 240.785 140.118 239.869 143.329C209.627 144.246 189.123 146.54 178.355 150.21C167.816 153.65 162.547 159.728 162.547 168.443C162.547 168.673 164.151 174.406 167.358 185.645L310.317 517.979H313.754L447.778 181.172C449.153 177.732 449.84 173.26 449.84 167.755C449.84 160.186 445.716 154.797 437.468 151.586C429.221 148.375 415.017 145.622 394.856 143.329C393.939 138.283 393.481 135.187 393.481 134.04C393.481 132.205 393.939 129.912 394.856 127.159C424.41 128.536 451.1 129.224 474.926 129.224C501.044 129.224 527.161 128.536 553.279 127.159C554.195 129.912 554.654 132.205 554.654 134.04C554.654 137.71 554.195 140.806 553.279 143.329C536.096 144.934 521.778 148.489 510.323 153.994C499.097 159.269 490.391 168.329 484.205 181.172L298.29 642.863H282.138L82.4764 185.645C71.9377 161.563 44.9038 147.457 1.37461 143.329C0.458202 139.201 0 136.334 0 134.728C0 132.435 0.458202 129.912 1.37461 127.159Z" fill="#363636"/>
<path d="M298.754 127.159C336.357 129.023 383.818 129.955 441.139 129.955C603.243 336.329 690.371 446.271 702.523 459.781C714.675 473.058 720.752 479.696 720.752 479.696H723.503C724.42 434.974 724.879 398.987 724.879 371.734C724.879 317.928 723.732 254.688 721.439 182.014C720.981 161.05 695.53 148.239 645.088 143.581C644.171 138.456 643.712 135.312 643.712 134.147C643.712 132.284 644.171 129.955 645.088 127.159C682.003 128.557 714.675 129.256 743.107 129.256C761.449 129.256 792.174 128.557 835.279 127.159C836.196 129.955 836.655 132.284 836.655 134.147C836.655 137.874 836.196 141.019 835.279 143.581C785.066 148.239 759.73 161.05 759.271 182.014C756.52 254.921 755.144 326.779 755.144 397.589C755.144 505.901 756.291 587.426 758.583 642.164L752.393 642.863L410.53 215.556H407.091C405.715 275.884 405.027 336.795 405.027 398.288C405.027 452.327 406.174 515.451 408.466 587.659C408.925 608.855 434.261 621.783 484.474 626.441C485.621 630.401 486.194 633.546 486.194 635.875C486.194 638.204 485.621 640.533 484.474 642.863C448.018 641.465 415.46 640.766 386.799 640.766C368.456 640.766 337.732 641.465 294.627 642.863C293.48 640.533 292.907 638.204 292.907 635.875C292.907 631.915 293.48 628.77 294.627 626.441C345.299 621.55 370.635 608.622 370.635 587.659C373.386 514.985 374.762 443.243 374.762 372.433C374.762 295.567 373.845 228.833 372.01 172.231C352.75 155.227 328.332 145.677 298.754 143.581C297.378 140.553 296.69 137.874 296.69 135.545C296.69 132.051 297.378 129.256 298.754 127.159Z" fill="#363636"/>
<rect x="299.139" y="127.159" width="252.399" height="12.4641" fill="#363636"/>
<rect x="453.376" y="129.002" width="80.7825" height="484.387" transform="rotate(23.3617 453.376 129.002)" fill="black"/>
<ellipse cx="476.05" cy="178.369" rx="13.4638" ry="12.1097" transform="rotate(23.3617 476.05 178.369)" fill="#D9D9D9"/>
<ellipse cx="456.842" cy="222.837" rx="13.4638" ry="12.1097" transform="rotate(23.3617 456.842 222.837)" fill="#D9D9D9"/>
<ellipse cx="437.635" cy="267.305" rx="13.4638" ry="12.1097" transform="rotate(23.3617 437.635 267.305)" fill="#D9D9D9"/>
<ellipse cx="399.219" cy="356.24" rx="13.4638" ry="12.1097" transform="rotate(23.3617 399.219 356.24)" fill="#D9D9D9"/>
<ellipse cx="380.012" cy="400.708" rx="13.4638" ry="12.1097" transform="rotate(23.3617 380.012 400.708)" fill="#D9D9D9"/>
<ellipse cx="360.804" cy="445.175" rx="13.4638" ry="12.1097" transform="rotate(23.3617 360.804 445.175)" fill="#D9D9D9"/>
<path d="M504.151 45.4054C504.151 45.4054 538.475 33.8488 553.591 66.7608L527.536 161.035L453.376 129.002L504.151 45.4054Z" fill="black"/>
<rect x="495.611" y="76.4978" width="8.97583" height="42.6943" transform="rotate(23.3617 495.611 76.4978)" fill="#D9D9D9"/>
<rect x="528.57" y="90.7344" width="8.97583" height="42.6943" transform="rotate(23.3617 528.57 90.7344)" fill="#D9D9D9"/>
<path d="M479.864 78.9971L545.783 107.471L545.049 97.8524L487.369 72.9378L479.864 78.9971Z" fill="#D9D9D9"/>
<path d="M469.706 102.514L535.626 130.988L536.36 140.606L462.2 108.573L469.706 102.514Z" fill="#D9D9D9"/>
<path d="M292.22 542.331L337.044 560.698L331.894 690.365C331.894 690.365 249.684 703.102 201.888 632.742L292.22 542.331Z" fill="black"/>
<path d="M229.825 604.701C259.315 657.928 333.571 652.068 333.571 652.068L332.952 685.593C332.952 685.593 253.803 694.959 205.494 629.419L229.825 604.701Z" fill="#D9D9D9"/>
<path d="M312.037 727.137C289.002 735.2 263.585 733.912 241.327 723.554C219.068 713.196 201.771 694.608 193.203 671.839" stroke="#222222" stroke-width="3" stroke-linecap="round"/>
<path d="M337.579 772.737C301.242 786.851 260.578 786.119 224.448 770.701C188.317 755.284 159.649 726.428 144.689 690.423" stroke="#222222" stroke-width="3" stroke-linecap="round"/>
</svg>
